<svg width="20" height="20" viewBox="0 0 20 20" fill="none" xmlns="http://www.w3.org/2000/svg">
<g id="ri:instagram-line">
<path id="Vector" d="M10.0013 7.49984C9.33826 7.49984 8.70238 7.76323 8.23354 8.23207C7.76469 8.70091 7.5013 9.3368 7.5013 9.99984C7.5013 10.6629 7.76469 11.2988 8.23354 11.7676C8.70238 12.2364 9.33826 12.4998 10.0013 12.4998C10.6643 12.4998 11.3002 12.2364 11.7691 11.7676C12.2379 11.2988 12.5013 10.6629 12.5013 9.99984C12.5013 9.3368 12.2379 8.70091 11.7691 8.23207C11.3002 7.76323 10.6643 7.49984 10.0013 7.49984ZM10.0013 5.83317C11.1064 5.83317 12.1662 6.27216 12.9476 7.05356C13.729 7.83496 14.168 8.89477 14.168 9.99984C14.168 11.1049 13.729 12.1647 12.9476 12.9461C12.1662 13.7275 11.1064 14.1665 10.0013 14.1665C8.89623 14.1665 7.83643 13.7275 7.05502 12.9461C6.27362 12.1647 5.83464 11.1049 5.83464 9.99984C5.83464 8.89477 6.27362 7.83496 7.05502 7.05356C7.83643 6.27216 8.89623 5.83317 10.0013 5.83317ZM15.418 5.62484C15.418 5.9011 15.3082 6.16606 15.1129 6.36141C14.9175 6.55676 14.6526 6.6665 14.3763 6.6665C14.1 6.6665 13.8351 6.55676 13.6397 6.36141C13.4444 6.16606 13.3346 5.9011 13.3346 5.62484C13.3346 5.34857 13.4444 5.08362 13.6397 4.88827C13.8351 4.69292 14.1 4.58317 14.3763 4.58317C14.6526 4.58317 14.9175 4.69292 15.1129 4.88827C15.3082 5.08362 15.418 5.34857 15.418 5.62484ZM10.0013 3.33317C7.93964 3.33317 7.60297 3.339 6.6438 3.3815C5.99047 3.41234 5.55214 3.49984 5.14547 3.65817C4.80515 3.78312 4.49748 3.98339 4.24547 4.244C3.98464 4.496 3.7841 4.80366 3.6588 5.144C3.50047 5.55234 3.41297 5.98984 3.38297 6.64234C3.33964 7.56234 3.3338 7.884 3.3338 9.99984C3.3338 12.0623 3.33964 12.3982 3.38214 13.3573C3.41297 14.0098 3.50047 14.449 3.65797 14.8548C3.79964 15.2173 3.9663 15.4782 4.24297 15.7548C4.5238 16.0348 4.78464 16.2023 5.14297 16.3407C5.55464 16.4998 5.99297 16.5882 6.64297 16.6182C7.56297 16.6615 7.88464 16.6665 10.0005 16.6665C12.063 16.6665 12.3988 16.6607 13.358 16.6182C14.0096 16.5873 14.448 16.4998 14.8555 16.3423C15.1955 16.2168 15.503 16.0166 15.7555 15.7565C16.0363 15.4765 16.2038 15.2157 16.3421 14.8565C16.5005 14.4465 16.5888 14.0082 16.6188 13.3565C16.6621 12.4373 16.6671 12.1148 16.6671 9.99984C16.6671 7.93817 16.6613 7.6015 16.6188 6.64234C16.588 5.99067 16.4996 5.55067 16.3421 5.144C16.2165 4.80402 16.0163 4.49649 15.7563 4.244C15.5044 3.98304 15.1967 3.78248 14.8563 3.65734C14.448 3.499 14.0096 3.4115 13.358 3.3815C12.4388 3.33817 12.118 3.33317 10.0013 3.33317ZM10.0013 1.6665C12.2655 1.6665 12.548 1.67484 13.4371 1.7165C14.3238 1.75817 14.9288 1.89734 15.4596 2.104C16.0096 2.31567 16.473 2.60234 16.9363 3.06484C17.36 3.48142 17.6879 3.98533 17.8971 4.5415C18.103 5.07234 18.243 5.67734 18.2846 6.56484C18.3238 7.45317 18.3346 7.73567 18.3346 9.99984C18.3346 12.264 18.3263 12.5465 18.2846 13.4348C18.243 14.3223 18.103 14.9265 17.8971 15.4582C17.6885 16.0146 17.3605 16.5187 16.9363 16.9348C16.5196 17.3584 16.0157 17.6863 15.4596 17.8957C14.9288 18.1015 14.3238 18.2415 13.4371 18.2832C12.548 18.3223 12.2655 18.3332 10.0013 18.3332C7.73714 18.3332 7.45464 18.3248 6.56547 18.2832C5.6788 18.2415 5.07464 18.1015 4.54297 17.8957C3.98657 17.6869 3.48257 17.359 3.0663 16.9348C2.64249 16.5183 2.3146 16.0144 2.10547 15.4582C1.8988 14.9273 1.75964 14.3223 1.71797 13.4348C1.67797 12.5465 1.66797 12.264 1.66797 9.99984C1.66797 7.73567 1.6763 7.45317 1.71797 6.56484C1.75964 5.6765 1.8988 5.07317 2.10547 4.5415C2.314 3.98499 2.64197 3.48094 3.0663 3.06484C3.48269 2.64086 3.98666 2.31295 4.54297 2.104C5.0738 1.89734 5.67797 1.75817 6.56547 1.7165C7.45464 1.67734 7.73714 1.6665 10.0013 1.6665Z" fill="white"/>
</g>
</svg>
